<?xml version="1.0" encoding="UTF-8"?>
<svg width="195px" height="131px" viewBox="0 0 195 131" version="1.1" xmlns="http://www.w3.org/2000/svg" xmlns:xlink="http://www.w3.org/1999/xlink">
    <!-- Generator: Sketch 59.1 (86144) - https://sketch.com -->
    <title>brand/logo w slogan</title>
    <desc>Created with Sketch.</desc>
    <defs>
        <polygon id="path-1" points="0.10440458 0.953709924 14.0190916 0.953709924 14.0190916 14.8088641 0.10440458 14.8088641"></polygon>
        <polygon id="path-3" points="0 14.8091603 192.94855 14.8091603 192.94855 0.953709924 0 0.953709924"></polygon>
    </defs>
    <g id="brand/logo-w-slogan" stroke="none" stroke-width="1" fill="none" fill-rule="evenodd">
        <g id="Logo" fill="#181716" fill-rule="nonzero">
            <path d="M27.3142857,97.2571429 C22.068327,97.1401716 17.8882254,92.8328218 17.9285714,87.5857143 L17.9285714,66.3857143 C17.959776,61.0888701 22.246013,56.8026332 27.5428571,56.7714286 C31.6868667,56.7694495 35.7313623,58.0411466 39.1285714,60.4142857 L39.1285714,67.7142857 L40.7,67.7142857 L40.7,55.0285714 L39.1285714,55.0285714 L39.1285714,58.5714286 C35.7087669,56.4105824 31.7452802,55.2661256 27.7,55.2714286 C15.8554557,55.4404029 6.31038529,65.0310783 6.19786933,76.8762935 C6.08535336,88.7215087 15.446517,98.4917716 27.2857143,98.8857143 C34.0714286,98.8857143 39.2714286,95.2428571 42.8142857,89.9142857 L41.4285714,88.9714286 C38.2714286,93.8428571 33.5142857,97.2571429 27.3142857,97.2571429 Z" id="Path"></path>
            <path d="M81.7714286,96.4428571 L72.3857143,73.9142857 C71.8089097,72.4589458 70.8149087,71.2065045 69.5285714,70.3142857 C73.3019851,69.3737975 75.7818473,65.7673171 75.3093377,61.9072777 C74.8368282,58.0472384 71.5602796,55.1454033 67.6714286,55.1428571 L46.4428571,55.1428571 L46.4428571,56.7714286 L51.0142857,56.7714286 L51.0142857,97.2571429 L46.4428571,97.2571429 L46.4428571,98.8142857 L64.4,98.8142857 L64.4,97.2571429 L59.8285714,97.2571429 L59.8285714,70.5571429 L61.4285714,70.5571429 L71.1,93.7857143 C72.3369261,96.8246779 75.2903796,98.8124706 78.5714286,98.8142857 C81.8362474,98.8709974 84.801943,96.9203295 86.0428571,93.9 L84.6142857,93.2571429 C84.0223659,94.5897174 83.0283004,95.7036703 81.7714286,96.4428571 L81.7714286,96.4428571 Z M59.8285714,68.9285714 L59.8285714,56.7714286 L67.6428571,56.7714286 C69.8848271,56.662709 72.0046238,57.7969135 73.1581752,59.7224182 C74.3117266,61.6479228 74.3117266,64.0520772 73.1581752,65.9775818 C72.0046238,67.9030865 69.8848271,69.037291 67.6428571,68.9285714 L59.8285714,68.9285714 Z" id="Shape"></path>
            <polygon id="Path" points="124.614286 56.7714286 129.485714 56.7714286 129.485714 97.2571429 124.614286 97.2571429 124.614286 98.8142857 143.028571 98.8142857 143.028571 97.2571429 138.285714 97.2571429 138.285714 70.2571429 146.8 70.2571429 146.8 68.6428571 138.285714 68.6428571 138.285714 56.7714286 154.271429 56.7714286 154.271429 64.7 155.9 64.7 155.9 55.1428571 124.614286 55.1428571"></polygon>
            <polygon id="Path" points="159.971429 64.7 161.528571 64.7 161.528571 56.7714286 172.128571 56.7714286 172.128571 97.2571429 167.214286 97.2571429 167.214286 98.8142857 185.857143 98.8142857 185.857143 97.2571429 180.928571 97.2571429 180.928571 56.7714286 191.471429 56.7714286 191.471429 64.7 193.042857 64.7 193.042857 55.1428571 159.971429 55.1428571"></polygon>
            <path d="M103.8,55.1428571 L93.8,55.1428571 L85.8,86.9714286 L87.4285714,86.9714286 L87.4285714,86.9714286 L103.685714,86.9714286 L106.742857,97.2857143 L102.457143,97.2857143 L102.457143,98.8428571 L120.471429,98.8428571 L120.471429,97.2571429 L116.485714,97.2571429 L103.8,55.1428571 Z M87.8714286,85.3285714 L94.8142857,57.6428571 L103.157143,85.3285714 L87.8714286,85.3285714 Z" id="Shape"></path>
            <path d="M119.157143,40.9 L109.914286,18.7142857 C109.330081,17.2786191 108.336456,16.0465242 107.057143,15.1714286 C110.765068,14.2401581 113.200536,10.69512 112.73974,6.89990726 C112.278945,3.10469448 109.065904,0.24546962 105.242857,0.228571429 L84.3571429,0.228571429 L84.3571429,1.82857143 L88.8714286,1.82857143 L88.8714286,41.7 L84.3571429,41.7 L84.3571429,43.2285714 L102.042857,43.2285714 L102.042857,41.7 L97.5428571,41.7 L97.5428571,15.4 L99.0857143,15.4 L108.6,38.2571429 C109.822918,41.2720753 112.760848,43.2363555 116.014286,43.2142857 C119.231861,43.2756459 122.155608,41.351082 123.371429,38.3714286 L121.942857,37.7428571 C121.372526,39.0639872 120.396978,40.1696089 119.157143,40.9 L119.157143,40.9 Z M97.5428571,13.7571429 L97.5428571,1.82857143 L105.242857,1.82857143 C108.548676,1.82857143 111.228571,4.508467 111.228571,7.81428571 C111.228571,11.1201044 108.548676,13.8 105.242857,13.8 L97.5428571,13.7571429 Z" id="Shape"></path>
            <polygon id="Path" points="180.657143 0.228571429 180.657143 1.82857143 185.342857 1.82857143 185.342857 39.3571429 166.114286 0.228571429 152.942857 0.228571429 152.942857 1.82857143 157.785714 1.82857143 157.785714 41.6857143 152.942857 41.6857143 152.942857 43.2285714 171.142857 43.2285714 171.142857 41.6857143 166.457143 41.6857143 166.457143 4.5 185.514286 43.2285714 190.7 43.2285714 190.7 41.6857143 186.885714 41.6857143 186.885714 1.82857143 193.042857 1.82857143 193.042857 0.228571429"></polygon>
            <path d="M27.1428571,43.4571429 C35.1636911,43.3898046 42.4932217,38.9034188 46.2018821,31.7911653 C49.9105425,24.6789117 49.393396,16.1009028 44.8571429,9.48571429 L54.6428571,2.85714286 C54.8397117,2.72401879 54.9748132,2.51737303 55.0177966,2.28365061 C55.0607801,2.0499282 55.0080394,1.80873676 54.8714286,1.61428571 C54.5938003,1.20626327 54.0393711,1.09792653 53.6285714,1.37142857 L43.7857143,8.02857143 C39.7362204,2.97508959 33.6186201,0.0239382166 27.1428571,-1.77635684e-15 C19.4960419,0.0798954682 12.4549896,4.17624832 8.60614242,10.7843147 C4.75729524,17.3923811 4.66814069,25.5378446 8.37142857,32.2285714 L0.4,37.6714286 C0.19991811,37.8049843 0.0616310322,38.0130818 0.0160025103,38.2492765 C-0.0296260116,38.4854712 0.0212021492,38.7301022 0.157142857,38.9285714 C0.324557451,39.1734167 0.603416987,39.3182092 0.9,39.3142857 C1.08855556,39.3205017 1.27403616,39.2653588 1.42857143,39.1571429 L9.31428571,33.7714286 C13.2552825,39.7872039 19.9511975,43.4248885 27.1428571,43.4571429 L27.1428571,43.4571429 Z M36.6142857,32.4 C36.5458482,37.6117205 32.3540717,41.8287867 27.1428571,41.9285714 C21.922099,41.8511909 17.7174049,37.6211292 17.6714286,32.4 L17.6714286,28.1142857 L36.6714286,15.1428571 L36.6142857,32.4 Z M17.6285714,11.0714287 C17.6285714,5.8247235 21.8818664,1.57142871 27.1285714,1.57142871 C32.3752765,1.57142871 36.6285714,5.8247235 36.6285714,11.0714287 L36.6285714,12.8571429 L17.6285714,25.8428571 L17.6285714,11.0714287 Z" id="Shape"></path>
            <polygon id="Rectangle" transform="translate(67.016064, 22.286410) rotate(-45.000000) translate(-67.016064, -22.286410) " points="63.2446356 18.514981 70.7874927 18.514981 70.7874927 26.0578381 63.2446356 26.0578381"></polygon>
            <polygon id="Rectangle" transform="translate(135.212175, 22.290298) rotate(-45.000000) translate(-135.212175, -22.290298) " points="131.440747 18.5188699 138.983604 18.5188699 138.983604 26.0617271 131.440747 26.0617271"></polygon>
        </g>
        <g id="Group-26" transform="translate(1.000000, 114.000000)">
            <polygon id="Fill-1" fill="#131413" points="8.6806855 1.6401145 8.6806855 9.26387023 1.43456336 9.26387023 1.43456336 1.6401145 -0.000444274809 1.6401145 -0.000444274809 15.1771679 1.43456336 15.1771679 1.43456336 10.5774427 8.6806855 10.5774427 8.6806855 15.1771679 10.1127313 15.1771679 10.1127313 1.6401145"></polygon>
            <g id="Group-25" transform="translate(0.000000, 0.527058)">
                <path d="M21.3425176,11.1467069 L18.9538,5.13418779 C18.6946397,4.49739389 18.4369603,3.52147023 18.4369603,3.52147023 C18.4369603,3.52147023 18.1570672,4.49739389 17.8979069,5.13418779 L15.5106702,11.1467069 L21.3425176,11.1467069 Z M18.3170061,0.97281374 L18.5554336,0.97281374 L24.2895405,14.6505542 L22.7760443,14.6505542 L21.8608382,12.3803099 L15.0116015,12.3803099 L14.1156473,14.6505542 L12.7028534,14.6505542 L18.3170061,0.97281374 Z" id="Fill-2" fill="#131413"></path>
                <path d="M29.8641527,10.0317252 C32.9103969,10.0317252 34.0447786,8.43825954 34.0447786,6.20948092 C34.0447786,3.97922137 32.9103969,2.38723664 29.8641527,2.38723664 L28.3121527,2.38723664 L28.3121527,10.0317252 L29.8641527,10.0317252 Z M26.877145,1.11364885 L29.9441221,1.11364885 C33.6464122,1.11364885 35.5390229,3.16323664 35.5390229,6.20948092 C35.5390229,9.19500763 33.6464122,11.2860611 29.9441221,11.2860611 L28.3121527,11.2860611 L28.3121527,14.6507023 L26.877145,14.6507023 L26.877145,1.11364885 Z" id="Fill-4" fill="#131413"></path>
                <path d="M41.491713,10.0317252 C44.5379573,10.0317252 45.6723389,8.43825954 45.6723389,6.20948092 C45.6723389,3.97922137 44.5379573,2.38723664 41.491713,2.38723664 L39.939713,2.38723664 L39.939713,10.0317252 L41.491713,10.0317252 Z M38.5047053,1.11364885 L41.5716824,1.11364885 C45.2739725,1.11364885 47.1665832,3.16323664 47.1665832,6.20948092 C47.1665832,9.19500763 45.2739725,11.2860611 41.5716824,11.2860611 L39.939713,11.2860611 L39.939713,14.6507023 L38.5047053,14.6507023 L38.5047053,1.11364885 Z" id="Fill-6" fill="#131413"></path>
                <path d="M53.8358885,10.4098031 L48.7193237,1.11261221 L50.3320412,1.11261221 L54.0150794,7.84189466 C54.3142244,8.35873435 54.5926366,9.21470382 54.5926366,9.21470382 C54.5926366,9.21470382 54.8903008,8.37946718 55.1701939,7.84189466 L58.8339802,1.11261221 L60.3252626,1.11261221 L55.3094,10.3490855 L55.3094,14.6496656 L53.8358885,14.6496656 L53.8358885,10.4098031 Z" id="Fill-8" fill="#131413"></path>
                <polygon id="Fill-10" fill="#131413" points="70.5807542 2.38694046 66.4193802 2.38694046 66.4193802 1.11335267 76.174174 1.11335267 76.174174 2.38694046 72.0142809 2.38694046 72.0142809 14.6504061 70.5807542 14.6504061"></polygon>
                <g id="Group-14" transform="translate(77.007634, 0.000000)">
                    <mask id="mask-2" fill="white">
                        <use xlink:href="#path-1"></use>
                    </mask>
                    <g id="Clip-13"></g>
                    <path d="M12.5263282,7.88113893 C12.5263282,4.65570382 10.2175802,2.24773435 7.05138168,2.24773435 C3.90591603,2.24773435 1.59716794,4.65570382 1.59716794,7.88113893 C1.59716794,11.106574 3.90591603,13.5160244 7.05138168,13.5160244 C10.2175802,13.5160244 12.5263282,11.106574 12.5263282,7.88113893 M0.10440458,7.88113893 C0.10440458,3.79973435 3.2098855,0.95341374 7.05138168,0.95341374 C10.9136107,0.95341374 14.0190916,3.79973435 14.0190916,7.88113893 C14.0190916,11.9625435 10.9136107,14.8088641 7.05138168,14.8088641 C3.2098855,14.8088641 0.10440458,11.9625435 0.10440458,7.88113893" id="Fill-12" fill="#131413" mask="url(#mask-2)"></path>
                </g>
                <path d="M96.1250748,5.23385344 C95.7474412,4.77625038 95.1891359,3.97951756 95.1891359,3.97951756 C95.1891359,3.97951756 95.3090901,4.9347084 95.3090901,5.51226565 L95.3090901,14.6495176 L93.9555328,14.6495176 L93.9555328,0.973258015 L94.1939603,0.973258015 L102.2768,10.5296092 C102.655915,10.9872122 103.212739,11.7824641 103.212739,11.7824641 C103.212739,11.7824641 103.113518,10.8272733 103.113518,10.2511969 L103.113518,1.11246412 L104.446342,1.11246412 L104.446342,14.7902046 L104.207915,14.7902046 L96.1250748,5.23385344 Z" id="Fill-15" fill="#131413"></path>
                <mask id="mask-4" fill="white">
                    <use xlink:href="#path-3"></use>
                </mask>
                <g id="Clip-18"></g>
                <polygon id="Fill-17" fill="#131413" mask="url(#mask-4)" points="108.210534 14.6492214 109.663313 14.6492214 109.663313 1.11216794 108.210534 1.11216794"></polygon>
                <path d="M112.651653,7.88113893 C112.651653,3.79973435 115.757134,0.95341374 119.598631,0.95341374 C121.988829,0.95341374 123.820722,1.84936794 124.974356,3.58203969 L123.879959,4.3772916 C123.003256,3.08297099 121.550478,2.24773435 119.598631,2.24773435 C116.433913,2.24773435 114.144417,4.65570382 114.144417,7.88113893 C114.144417,11.106574 116.433913,13.5160244 119.598631,13.5160244 C121.56973,13.5160244 123.083226,12.660055 124.05915,11.2457802 L125.174279,12.0217802 C123.97918,13.7737038 122.028814,14.8088641 119.598631,14.8088641 C115.757134,14.8088641 112.651653,11.9625435 112.651653,7.88113893" id="Fill-19" fill="#131413" mask="url(#mask-4)"></path>
                <path d="M131.446551,1.1129084 L132.979299,1.1129084 L135.82562,10.1302061 C136.004811,10.7284962 136.204734,11.6037176 136.204734,11.6037176 C136.204734,11.6037176 136.422429,10.7077634 136.643085,10.1302061 L140.166185,0.97370229 L140.406093,0.97370229 L143.929192,10.1302061 C144.148368,10.7077634 144.367544,11.6037176 144.367544,11.6037176 C144.367544,11.6037176 144.565986,10.7077634 144.743696,10.1302061 L147.572246,1.1129084 L149.025024,1.1129084 L144.565986,14.7891679 L144.326078,14.7891679 L140.683024,5.15432824 C140.46533,4.59750382 140.286139,3.8200229 140.286139,3.8200229 C140.286139,3.8200229 140.086215,4.59750382 139.868521,5.15432824 L136.166231,14.7891679 L135.924841,14.7891679 L131.446551,1.1129084 Z" id="Fill-20" fill="#131413" mask="url(#mask-4)"></path>
                <path d="M157.606933,11.1467069 L155.218215,5.13418779 C154.960536,4.49739389 154.701376,3.52147023 154.701376,3.52147023 C154.701376,3.52147023 154.422963,4.49739389 154.163803,5.13418779 L151.775085,11.1467069 L157.606933,11.1467069 Z M154.581421,0.97281374 L154.819849,0.97281374 L160.553956,14.6505542 L159.04046,14.6505542 L158.125253,12.3803099 L151.277498,12.3803099 L150.380063,14.6505542 L148.967269,14.6505542 L154.581421,0.97281374 Z" id="Fill-21" fill="#131413" mask="url(#mask-4)"></path>
                <polygon id="Fill-22" fill="#131413" mask="url(#mask-4)" points="164.516887 2.38694046 160.355513 2.38694046 160.355513 1.11335267 170.110307 1.11335267 170.110307 2.38694046 165.950414 2.38694046 165.950414 14.6504061 164.516887 14.6504061"></polygon>
                <polygon id="Fill-23" fill="#131413" mask="url(#mask-4)" points="172.620015 1.1129084 180.861313 1.1129084 180.861313 2.38649618 174.055023 2.38649618 174.055023 8.73666412 180.125298 8.73666412 180.125298 9.99248092 174.055023 9.99248092 174.055023 13.376374 181.141206 13.376374 181.141206 14.6499618 172.620015 14.6499618"></polygon>
                <path d="M187.134177,9.81254962 C190.199673,9.81254962 191.335536,8.23981679 191.335536,6.11025954 C191.335536,3.97922137 190.180421,2.38723664 187.134177,2.38723664 L185.601429,2.38723664 L185.601429,9.81254962 L187.134177,9.81254962 Z M192.948253,14.6507023 L191.255566,14.6507023 L188.646192,10.9469313 C188.19007,11.0269008 187.691002,11.0668855 187.214147,11.0668855 L185.601429,11.0668855 L185.601429,14.6507023 L184.167902,14.6507023 L184.167902,1.11216794 L187.214147,1.11216794 C190.917918,1.11216794 192.828299,3.18248855 192.828299,6.11025954 C192.828299,8.14059542 191.871627,9.73258015 190.001231,10.4893282 L192.948253,14.6507023 Z" id="Fill-24" fill="#131413" mask="url(#mask-4)"></path>
            </g>
        </g>
    </g>
</svg>